Inverse Dynamics Generalized Forces
version=1
nRows=15
nColumns=34
inDegrees=no
endheader 
time	pelvis_tilt_moment	pelvis_list_moment	pelvis_rotation_moment	pelvis_tx_force	pelvis_ty_force	pelvis_tz_force	hip_flexion_l_moment	hip_adduction_l_moment	hip_rotation_l_moment	hip_flexion_r_moment	hip_adduction_r_moment	hip_rotation_r_moment	knee_angle_l_moment	knee_angle_r_moment	ankle_angle_l_moment	ankle_angle_r_moment	subtalar_angle_l_moment	subtalar_angle_r_moment	mtp_angle_l_moment	mtp_angle_r_moment	lumbar_extension_moment	lumbar_bending_moment	lumbar_rotation_moment	arm_flex_l_moment	arm_add_l_moment	arm_rot_l_moment	arm_flex_r_moment	arm_add_r_moment	arm_rot_r_moment	elbow_flex_l_moment	elbow_flex_r_moment	pro_sup_l_moment	pro_sup_r_moment	
          6.35000000	         -0.00000001	          0.00000000	          0.00000000	          0.00000001	         -0.00000000	         -0.00000000	          4.99503775	        -23.42764693	         -3.71016059	         53.61515540	          5.90674551	          5.84508443	        -14.70356700	         -1.76615843	          3.82573846	         -3.26230549	         -1.05020089	         -5.35425040	         -0.18860389	         -0.68719867	        -30.18739751	         73.64593488	        -51.76866089	        152.56182238	         14.33700630	        -52.72066883	        -60.83013389	         -5.30441237	         -2.45932666	        125.98489122	          4.89353410	         -3.89072117	          0.44135161	
          6.36003401	         -0.00000000	          0.00000000	          0.00000000	         -0.00000000	          0.00000000	          0.00000000	          9.55028798	        -15.89624301	         -1.59349363	         90.21352317	          5.26323476	          2.87734671	          7.67674630	          1.23160447	          3.19076950	          9.65487274	         -1.09440748	         -2.28306480	         -0.33882323	         -0.43910305	        -97.43620805	         25.20806558	        -64.50284107	        152.27798216	         48.01493165	        -23.12477154	        -57.18010433	        -28.39049817	          4.60723577	         94.50474285	         -2.37296776	         -2.05117279	          0.20187577	
          6.37006803	         -0.00000000	         -0.00000000	         -0.00000000	         -0.00000000	          0.00000001	         -0.00000000	         22.41083159	         14.81170281	          0.28151076	         83.79155120	          0.10038181	          2.11478068	         12.91351839	         -7.97793844	          4.19169392	          7.42580226	         -2.68756782	         -0.82363203	         -0.37300463	         -0.32177648	       -147.82226392	        -55.83253693	        -90.45449069	        151.85141667	         36.75062493	        -22.28006199	        -42.46549257	         16.18293130	        -23.40104675	         62.03016449	         -9.52704728	         -1.44506413	         -1.41479957	
          6.38010204	          0.00000000	          0.00000000	         -0.00000000	         -0.00000001	          0.00000000	         -0.00000000	         32.60105420	         46.85040744	          1.49089136	         74.73598202	         -5.68151107	          0.11431580	         25.99001775	        -35.90236444	          5.21217738	          6.10963662	         -3.76852376	          0.99579961	         -0.47032380	         -0.28465826	       -146.74277863	       -116.69059566	        -76.01794784	        151.33127314	          0.82508807	        -41.75322189	        -23.34754820	         33.79741225	        -32.83713680	         35.09332419	        -11.68834644	         -1.82375048	         -1.44821554	
          6.39013606	          0.00000000	         -0.00000000	         -0.00000000	         -0.00000000	          0.00000000	         -0.00000000	          3.66853916	         31.58863624	          0.60899532	         55.89542368	         -3.79448261	         -0.69117554	         34.32163924	        -33.42344502	          9.64476596	          5.54846222	         -3.26526889	          1.95266075	         -0.96737229	         -0.37272356	        -64.65736145	       -124.74146848	        -49.06226784	        124.21276708	        -23.68827636	        -43.81415909	         -7.43611561	         31.80147951	        -27.49704083	         19.37370223	         -5.07691100	         -1.79023683	         -0.92129469	
          6.40017007	         -0.00000000	          0.00000000	          0.00000000	          0.00000000	         -0.00000000	          0.00000000	         12.13817747	          6.59632457	          1.80551619	         58.39994723	         -3.67925359	         -0.64531079	         22.68835093	        -38.60795260	         13.09872441	          3.75538145	         -2.75479852	          2.95885530	         -1.33158899	         -0.22455346	         14.10012027	        -31.70178352	         10.94455443	        130.52066839	        -55.07110632	        -52.79590481	         23.30182555	        -13.24861987	          2.55310882	         19.95543990	         15.55695525	         -2.41570577	         -0.30836124	
          6.41020409	         -0.00000000	         -0.00000000	          0.00000000	          0.00000000	         -0.00000000	          0.00000000	          8.27932842	         -5.82187040	          3.33668301	         71.25492475	         -7.31647811	         -2.16539634	         15.41169558	        -55.13076966	          9.93438930	          0.61558661	         -1.76332698	          2.69183566	         -1.14528864	          0.06995432	         21.34574929	         50.97198958	         40.31769805	         60.74375636	        -78.60712503	        -37.56433364	         47.01381849	        -47.18930957	         31.70063241	          0.92938842	         29.72712592	         -1.87823201	          0.24420323	
          6.42023810	         -0.00000000	         -0.00000000	          0.00000000	          0.00000000	         -0.00000000	          0.00000000	        -56.16125039	         36.46144399	         -0.15493819	         82.73895693	        -13.98876463	         -2.65080288	         33.46150049	        -68.01153311	         -4.51919023	         -0.70762268	          5.70583469	         -0.04681427	         -0.59029626	          0.18758409	          2.38371915	         86.20512260	         35.94084470	          8.23232357	        -71.94091281	        -22.51283893	          8.15066235	        -72.76186333	         56.03334092	        -10.47549008	         20.45035344	         -1.28756485	          1.21752530	
          6.43027211	          0.00000000	         -0.00000000	          0.00000000	         -0.00000000	         -0.00000000	         -0.00000000	       -193.40077073	         72.35824064	        -17.78413857	        107.59168431	         -4.06428654	         -3.83698163	         47.43066465	        -76.05834252	        -11.13172402	         -3.28859737	          8.78106522	         -0.43309790	         -0.30178318	          0.31097129	         49.45609865	        105.95269968	         -3.47846672	        -31.12028361	        -16.56209278	         -0.21243026	        -31.49548027	        -45.34951608	         35.92679649	         -6.41640308	         12.01855874	         -0.19764869	          0.88385031	
          6.44030613	          0.00000000	          0.00000000	          0.00000000	          0.00000000	         -0.00000000	         -0.00000000	       -216.20827093	         55.45158655	        -11.43063761	        129.34053966	        -11.03708223	         -3.38420306	         47.32505902	        -79.66824206	         -9.23264055	         -4.10370880	          4.62028909	         -0.27818949	         -0.09206647	          0.38756747	         57.95359374	         68.13729520	        -52.35490481	          8.87131517	         25.10754191	          0.24581998	        -33.27261246	          3.42264610	          2.29817633	         16.18152621	         16.14922843	         -1.12910464	          0.04093966	
          6.45034014	          0.00000000	          0.00000000	         -0.00000000	          0.00000000	          0.00000000	         -0.00000000	       -172.18139717	         35.09370711	         -7.57172152	        190.91519302	        -14.37992454	          1.22647425	          6.04727355	        -94.43153494	         -5.37618838	         -0.59420592	          0.29368755	         -0.33238241	          0.12445564	          0.18782477	          2.74638274	         75.50317262	        -82.87398271	        -18.06531736	         27.79711480	         -2.39243550	         12.19930509	         39.99213422	        -28.33344923	         -0.48436219	         21.86596214	         -1.05828792	         -0.73964414	
          6.46037416	         -0.00000000	         -0.00000000	          0.00000000	         -0.00000000	          0.00000000	         -0.00000000	        -85.49545786	          4.79302282	          1.18852549	        205.29370975	        -15.05553993	          0.48683941	        -34.60674126	        -86.18534324	         -0.39717018	          2.14602494	         -2.03306988	         -0.53943208	          0.05019352	          0.06086999	        -67.99230508	         60.71685614	        -86.38140396	        -50.77027017	         -2.73404364	        -10.72002652	         46.18927211	         34.26605479	        -31.46815743	        -34.92112241	         17.80226969	          1.23345805	         -0.88361096	
          6.47040817	          0.00000000	         -0.00000000	          0.00000000	         -0.00000000	          0.00000000	         -0.00000000	       -104.42374225	          5.30243884	         -1.50471452	        189.86869988	        -13.42594970	          0.97915051	         -6.98258750	        -75.33739507	          0.66488603	          2.38994100	         -2.71815360	         -0.64616811	         -0.04824234	          0.05933045	        -30.61906209	         45.83004693	        -67.14122766	        -54.03085909	         35.39819188	         -8.25748114	         38.33844841	        -11.67602293	          8.10347180	        -49.13599242	         19.06864436	          3.89617594	         -0.22286266	
          6.48044219	          0.00000000	         -0.00000000	          0.00000000	         -0.00000000	         -0.00000000	         -0.00000000	        -88.47667090	          3.35961842	         -0.94602077	        134.55000700	         -2.71097974	         -0.52279330	          0.82380785	        -38.23877375	         -5.73549176	         -0.31429248	         -0.18517932	          0.77705008	          0.53857121	          0.27623173	        -39.85141825	         38.20852467	        -30.37774874	        -76.47240567	         64.17200288	         -9.53719145	         -4.25399434	        -44.11772546	         43.29313543	        -45.75356373	         20.87755726	          0.02873281	          0.52553256	
          6.49047620	          0.00000000	         -0.00000000	          0.00000000	         -0.00000000	          0.00000000	         -0.00000000	       -108.85685048	        -33.20900940	         12.41993134	        100.45011928	         22.52511091	         -4.57976403	         -9.40837474	        -14.57363100	         -5.77400404	         -1.22164832	          0.13625278	          2.66804357	          0.58668290	          0.31336393	         -1.91476205	         -2.07767504	        -62.30518572	        -66.61476473	         34.80520153	         33.27198593	        -41.11408116	          3.39673321	          6.80626636	          3.13520266	         12.89263914	          2.29370227	          0.28642439	
